<?xml version="1.0" encoding="utf-8"?>
<!-- Generator: Adobe Illustrator 21.0.0, SVG Export Plug-In . SVG Version: 6.00 Build 0)  -->
<svg version="1.1" id="Layer_1" xmlns="http://www.w3.org/2000/svg" xmlns:xlink="http://www.w3.org/1999/xlink" x="0px" y="0px"
	 viewBox="0 0 512 512" style="enable-background:new 0 0 512 512;" xml:space="preserve">
<path d="M511.9,27.6c0-3.3-0.6-6.6-1.8-9.8c-1-2.7-2.5-5.2-4.2-7.4c-2.6-3.3-5.9-5.8-9.6-7.6C492.8,1,488.7,0,484.6,0
	c-3.3,0-6.6,0.6-9.8,1.8h0.1l-457.1,173h-0.1l6.5,17.2l3.3,8.5l0,0.1l0,0l-3.2-8.6l-6.6-17.1C9.9,177.8,4,184,1.4,191.8
	c-0.9,2.8-1.4,5.8-1.4,8.7c0,5.8,1.8,11.3,5.1,15.9c1.6,2.3,3.6,4.4,5.9,6.1s4.9,3.1,7.8,4.1l0,0l188.7,76.5l1.1,0.4l0.4,1.1
	l76.6,188.9l0,0c2.6,7.6,8.4,13.6,15.8,16.6c3.3,1.3,6.7,1.9,10.1,1.9c5.5,0,10.8-1.6,15.2-4.6c2.2-1.5,4.3-3.3,6-5.5
	c1.7-2.1,3.2-4.6,4.3-7.2l0.1-0.3l173-457.1v0.1C511.3,34.2,511.9,30.9,511.9,27.6z M218,268.1L52.4,200.9l374.9-142L218,268.1z
	 M29,204.7l1.7,4.4h-0.1L29,204.7z M311.2,459.7L244,293.9l209-209L311.2,459.7z"/>
</svg>
